
<svg xmlns="http://www.w3.org/2000/svg" viewBox="0 0 340 64" width="340" height="64" fill="none">
  <g transform="translate(6 12)">
    <circle cx="20" cy="20" r="18" stroke="#e0a85a" stroke-width="1"></circle>
    <g stroke="#e0a85a" stroke-width="1" stroke-linejoin="round" fill="none">
      <path d="M20 4 L29.7 10  L20 20 Z"></path>
      <path d="M29.7 10 L35 20 L20 20 Z"></path>
      <path d="M35 20  L29.7 30 L20 20 Z"></path>
      <path d="M29.7 30 L20 35  L20 20 Z"></path>
      <path d="M20 35  L10.3 30 L20 20 Z"></path>
      <path d="M10.3 30 L5 20   L20 20 Z"></path>
      <path d="M5 20   L10.3 10 L20 20 Z"></path>
      <path d="M10.3 10 L20 4   L20 20 Z"></path>
    </g>
    <circle cx="20" cy="20" r="3.6" fill="#0b0b0c" stroke="#e0a85a" stroke-width="1"></circle>
  </g>
  <text x="60" y="42" font-family="Cormorant Garamond, Playfair Display, Georgia, serif" font-weight="400" font-size="34" letter-spacing="0.5" fill="#f4f1ea">Aperture</text>
</svg>